<mxfile host="Electron" modified="2023-09-21T04:59:16.881Z" agent="Mozilla/5.0 (Windows NT 10.0; Win64; x64) AppleWebKit/537.36 (KHTML, like Gecko) draw.io/21.6.8 Chrome/114.0.5735.289 Electron/25.5.0 Safari/537.36" etag="7VSsltptpSbwEYUGyGZO" version="21.6.8" type="device">
  <diagram name="PÃ¡gina-1" id="3_GA0uDGxl2NMBmm-nOA">
    <mxGraphModel dx="880" dy="1711" grid="1" gridSize="10" guides="1" tooltips="1" connect="1" arrows="1" fold="1" page="1" pageScale="1" pageWidth="827" pageHeight="1169" math="0" shadow="0">
      <root>
        <mxCell id="0" />
        <mxCell id="1" parent="0" />
        <mxCell id="BEGQN_6X3QiuYtlpZbj9-1" value="CajaMenor" style="rounded=0;whiteSpace=wrap;html=1;" vertex="1" parent="1">
          <mxGeometry x="350" y="240" width="120" height="60" as="geometry" />
        </mxCell>
        <mxCell id="BEGQN_6X3QiuYtlpZbj9-2" value="idCaja" style="ellipse;whiteSpace=wrap;html=1;" vertex="1" parent="1">
          <mxGeometry x="270" y="160" width="90" height="40" as="geometry" />
        </mxCell>
        <mxCell id="BEGQN_6X3QiuYtlpZbj9-3" value="nomCaja" style="ellipse;whiteSpace=wrap;html=1;" vertex="1" parent="1">
          <mxGeometry x="220" y="240" width="90" height="40" as="geometry" />
        </mxCell>
        <mxCell id="BEGQN_6X3QiuYtlpZbj9-4" value="FechaA" style="ellipse;whiteSpace=wrap;html=1;" vertex="1" parent="1">
          <mxGeometry x="240" y="320" width="90" height="40" as="geometry" />
        </mxCell>
        <mxCell id="BEGQN_6X3QiuYtlpZbj9-5" value="ValorInicial" style="ellipse;whiteSpace=wrap;html=1;" vertex="1" parent="1">
          <mxGeometry x="350" y="340" width="90" height="40" as="geometry" />
        </mxCell>
        <mxCell id="BEGQN_6X3QiuYtlpZbj9-6" value="" style="endArrow=none;html=1;rounded=0;entryX=0.589;entryY=1.05;entryDx=0;entryDy=0;entryPerimeter=0;exitX=0.25;exitY=0;exitDx=0;exitDy=0;" edge="1" parent="1" source="BEGQN_6X3QiuYtlpZbj9-1" target="BEGQN_6X3QiuYtlpZbj9-2">
          <mxGeometry width="50" height="50" relative="1" as="geometry">
            <mxPoint x="390" y="300" as="sourcePoint" />
            <mxPoint x="440" y="250" as="targetPoint" />
          </mxGeometry>
        </mxCell>
        <mxCell id="BEGQN_6X3QiuYtlpZbj9-7" value="" style="endArrow=none;html=1;rounded=0;exitX=1;exitY=1;exitDx=0;exitDy=0;entryX=0;entryY=0.25;entryDx=0;entryDy=0;" edge="1" parent="1" source="BEGQN_6X3QiuYtlpZbj9-3" target="BEGQN_6X3QiuYtlpZbj9-1">
          <mxGeometry width="50" height="50" relative="1" as="geometry">
            <mxPoint x="390" y="300" as="sourcePoint" />
            <mxPoint x="440" y="250" as="targetPoint" />
          </mxGeometry>
        </mxCell>
        <mxCell id="BEGQN_6X3QiuYtlpZbj9-8" value="" style="endArrow=none;html=1;rounded=0;exitX=1;exitY=0;exitDx=0;exitDy=0;entryX=0;entryY=1;entryDx=0;entryDy=0;" edge="1" parent="1" source="BEGQN_6X3QiuYtlpZbj9-4" target="BEGQN_6X3QiuYtlpZbj9-1">
          <mxGeometry width="50" height="50" relative="1" as="geometry">
            <mxPoint x="390" y="300" as="sourcePoint" />
            <mxPoint x="440" y="250" as="targetPoint" />
          </mxGeometry>
        </mxCell>
        <mxCell id="BEGQN_6X3QiuYtlpZbj9-9" value="" style="endArrow=none;html=1;rounded=0;exitX=0.5;exitY=0;exitDx=0;exitDy=0;entryX=0.5;entryY=1;entryDx=0;entryDy=0;" edge="1" parent="1" source="BEGQN_6X3QiuYtlpZbj9-5" target="BEGQN_6X3QiuYtlpZbj9-1">
          <mxGeometry width="50" height="50" relative="1" as="geometry">
            <mxPoint x="390" y="300" as="sourcePoint" />
            <mxPoint x="440" y="250" as="targetPoint" />
          </mxGeometry>
        </mxCell>
        <mxCell id="BEGQN_6X3QiuYtlpZbj9-10" value="Empresa" style="rounded=0;whiteSpace=wrap;html=1;" vertex="1" parent="1">
          <mxGeometry x="982" y="-540" width="130" height="60" as="geometry" />
        </mxCell>
        <mxCell id="BEGQN_6X3QiuYtlpZbj9-11" value="idEmpresa" style="ellipse;whiteSpace=wrap;html=1;" vertex="1" parent="1">
          <mxGeometry x="847" y="-530" width="90" height="40" as="geometry" />
        </mxCell>
        <mxCell id="BEGQN_6X3QiuYtlpZbj9-12" value="Nit" style="ellipse;whiteSpace=wrap;html=1;" vertex="1" parent="1">
          <mxGeometry x="897" y="-600" width="90" height="40" as="geometry" />
        </mxCell>
        <mxCell id="BEGQN_6X3QiuYtlpZbj9-13" value="nomEmpresa" style="ellipse;whiteSpace=wrap;html=1;" vertex="1" parent="1">
          <mxGeometry x="1006" y="-630" width="90" height="40" as="geometry" />
        </mxCell>
        <mxCell id="BEGQN_6X3QiuYtlpZbj9-14" value="" style="ellipse;whiteSpace=wrap;html=1;fillColor=#d5e8d4;strokeColor=#82b366;" vertex="1" parent="1">
          <mxGeometry x="1193" y="-250" width="90" height="40" as="geometry" />
        </mxCell>
        <mxCell id="BEGQN_6X3QiuYtlpZbj9-15" value="" style="ellipse;whiteSpace=wrap;html=1;" vertex="1" parent="1">
          <mxGeometry x="1209" y="-250" width="74" height="40" as="geometry" />
        </mxCell>
        <mxCell id="BEGQN_6X3QiuYtlpZbj9-16" value="idEmpresaFK" style="text;html=1;strokeColor=none;fillColor=none;align=center;verticalAlign=middle;whiteSpace=wrap;rounded=0;" vertex="1" parent="1">
          <mxGeometry x="1208" y="-245" width="60" height="30" as="geometry" />
        </mxCell>
        <mxCell id="BEGQN_6X3QiuYtlpZbj9-17" value="" style="endArrow=none;html=1;rounded=0;entryX=1;entryY=0.25;entryDx=0;entryDy=0;exitX=0.5;exitY=1;exitDx=0;exitDy=0;" edge="1" parent="1" source="BEGQN_6X3QiuYtlpZbj9-16" target="BEGQN_6X3QiuYtlpZbj9-118">
          <mxGeometry width="50" height="50" relative="1" as="geometry">
            <mxPoint x="310" y="250" as="sourcePoint" />
            <mxPoint x="360" y="200" as="targetPoint" />
          </mxGeometry>
        </mxCell>
        <mxCell id="BEGQN_6X3QiuYtlpZbj9-18" value="" style="endArrow=none;html=1;rounded=0;entryX=0;entryY=0.5;entryDx=0;entryDy=0;exitX=1;exitY=0.5;exitDx=0;exitDy=0;" edge="1" parent="1" source="BEGQN_6X3QiuYtlpZbj9-11" target="BEGQN_6X3QiuYtlpZbj9-10">
          <mxGeometry width="50" height="50" relative="1" as="geometry">
            <mxPoint x="947" y="-320" as="sourcePoint" />
            <mxPoint x="997" y="-370" as="targetPoint" />
          </mxGeometry>
        </mxCell>
        <mxCell id="BEGQN_6X3QiuYtlpZbj9-19" value="" style="endArrow=none;html=1;rounded=0;entryX=0;entryY=0;entryDx=0;entryDy=0;exitX=1;exitY=1;exitDx=0;exitDy=0;" edge="1" parent="1" source="BEGQN_6X3QiuYtlpZbj9-12" target="BEGQN_6X3QiuYtlpZbj9-10">
          <mxGeometry width="50" height="50" relative="1" as="geometry">
            <mxPoint x="947" y="-320" as="sourcePoint" />
            <mxPoint x="997" y="-370" as="targetPoint" />
          </mxGeometry>
        </mxCell>
        <mxCell id="BEGQN_6X3QiuYtlpZbj9-20" value="" style="endArrow=none;html=1;rounded=0;entryX=0.5;entryY=0;entryDx=0;entryDy=0;exitX=0.5;exitY=1;exitDx=0;exitDy=0;" edge="1" parent="1" source="BEGQN_6X3QiuYtlpZbj9-13" target="BEGQN_6X3QiuYtlpZbj9-10">
          <mxGeometry width="50" height="50" relative="1" as="geometry">
            <mxPoint x="947" y="-320" as="sourcePoint" />
            <mxPoint x="997" y="-370" as="targetPoint" />
          </mxGeometry>
        </mxCell>
        <mxCell id="BEGQN_6X3QiuYtlpZbj9-21" value="Pertenece&lt;br&gt;1:M" style="rhombus;whiteSpace=wrap;html=1;" vertex="1" parent="1">
          <mxGeometry x="1007.5" y="-360" width="80" height="80" as="geometry" />
        </mxCell>
        <mxCell id="BEGQN_6X3QiuYtlpZbj9-22" value="" style="endArrow=none;html=1;rounded=0;entryX=0.5;entryY=1;entryDx=0;entryDy=0;exitX=0.5;exitY=0;exitDx=0;exitDy=0;" edge="1" parent="1" source="BEGQN_6X3QiuYtlpZbj9-21" target="BEGQN_6X3QiuYtlpZbj9-10">
          <mxGeometry width="50" height="50" relative="1" as="geometry">
            <mxPoint x="1057.5" y="-370" as="sourcePoint" />
            <mxPoint x="1107.5" y="-420" as="targetPoint" />
          </mxGeometry>
        </mxCell>
        <mxCell id="BEGQN_6X3QiuYtlpZbj9-23" value="" style="endArrow=none;html=1;rounded=0;entryX=0.5;entryY=1;entryDx=0;entryDy=0;exitX=0.75;exitY=0;exitDx=0;exitDy=0;" edge="1" parent="1" source="BEGQN_6X3QiuYtlpZbj9-118" target="BEGQN_6X3QiuYtlpZbj9-21">
          <mxGeometry width="50" height="50" relative="1" as="geometry">
            <mxPoint x="410" y="240" as="sourcePoint" />
            <mxPoint x="360" y="-30" as="targetPoint" />
          </mxGeometry>
        </mxCell>
        <mxCell id="BEGQN_6X3QiuYtlpZbj9-24" value="1" style="text;html=1;align=center;verticalAlign=middle;resizable=0;points=[];autosize=1;strokeColor=none;fillColor=none;" vertex="1" parent="1">
          <mxGeometry x="1012" y="-482" width="30" height="30" as="geometry" />
        </mxCell>
        <mxCell id="BEGQN_6X3QiuYtlpZbj9-28" value="RegistrodeSolicitudes" style="rounded=0;whiteSpace=wrap;html=1;" vertex="1" parent="1">
          <mxGeometry x="750" y="240" width="120" height="60" as="geometry" />
        </mxCell>
        <mxCell id="BEGQN_6X3QiuYtlpZbj9-29" value="Tiene" style="rhombus;whiteSpace=wrap;html=1;" vertex="1" parent="1">
          <mxGeometry x="570" y="230" width="80" height="80" as="geometry" />
        </mxCell>
        <mxCell id="BEGQN_6X3QiuYtlpZbj9-30" value="" style="endArrow=none;html=1;rounded=0;exitX=1;exitY=0.5;exitDx=0;exitDy=0;entryX=0;entryY=0.5;entryDx=0;entryDy=0;" edge="1" parent="1" source="BEGQN_6X3QiuYtlpZbj9-1" target="BEGQN_6X3QiuYtlpZbj9-29">
          <mxGeometry width="50" height="50" relative="1" as="geometry">
            <mxPoint x="720" y="310" as="sourcePoint" />
            <mxPoint x="770" y="260" as="targetPoint" />
          </mxGeometry>
        </mxCell>
        <mxCell id="BEGQN_6X3QiuYtlpZbj9-31" value="" style="endArrow=none;html=1;rounded=0;exitX=1;exitY=0.5;exitDx=0;exitDy=0;entryX=0;entryY=0.5;entryDx=0;entryDy=0;" edge="1" parent="1" source="BEGQN_6X3QiuYtlpZbj9-29" target="BEGQN_6X3QiuYtlpZbj9-28">
          <mxGeometry width="50" height="50" relative="1" as="geometry">
            <mxPoint x="720" y="310" as="sourcePoint" />
            <mxPoint x="770" y="260" as="targetPoint" />
          </mxGeometry>
        </mxCell>
        <mxCell id="BEGQN_6X3QiuYtlpZbj9-32" value="1" style="text;html=1;align=center;verticalAlign=middle;resizable=0;points=[];autosize=1;strokeColor=none;fillColor=none;" vertex="1" parent="1">
          <mxGeometry x="465" y="248" width="30" height="30" as="geometry" />
        </mxCell>
        <mxCell id="BEGQN_6X3QiuYtlpZbj9-33" value="M" style="text;html=1;align=center;verticalAlign=middle;resizable=0;points=[];autosize=1;strokeColor=none;fillColor=none;" vertex="1" parent="1">
          <mxGeometry x="725" y="248" width="30" height="30" as="geometry" />
        </mxCell>
        <mxCell id="BEGQN_6X3QiuYtlpZbj9-34" value="1" style="text;html=1;align=center;verticalAlign=middle;resizable=0;points=[];autosize=1;strokeColor=none;fillColor=none;" vertex="1" parent="1">
          <mxGeometry x="725" y="268" width="30" height="30" as="geometry" />
        </mxCell>
        <mxCell id="BEGQN_6X3QiuYtlpZbj9-35" value="1" style="text;html=1;align=center;verticalAlign=middle;resizable=0;points=[];autosize=1;strokeColor=none;fillColor=none;" vertex="1" parent="1">
          <mxGeometry x="465" y="268" width="30" height="30" as="geometry" />
        </mxCell>
        <mxCell id="BEGQN_6X3QiuYtlpZbj9-36" value="TipoRegistro" style="rounded=0;whiteSpace=wrap;html=1;" vertex="1" parent="1">
          <mxGeometry x="550" y="-79" width="120" height="60" as="geometry" />
        </mxCell>
        <mxCell id="BEGQN_6X3QiuYtlpZbj9-37" value="Tiene&lt;br&gt;1:M" style="rhombus;whiteSpace=wrap;html=1;" vertex="1" parent="1">
          <mxGeometry x="675" y="54" width="80" height="80" as="geometry" />
        </mxCell>
        <mxCell id="BEGQN_6X3QiuYtlpZbj9-38" value="" style="endArrow=none;html=1;rounded=0;entryX=0.5;entryY=1;entryDx=0;entryDy=0;exitX=0.5;exitY=0;exitDx=0;exitDy=0;" edge="1" parent="1" source="BEGQN_6X3QiuYtlpZbj9-37" target="BEGQN_6X3QiuYtlpZbj9-36">
          <mxGeometry width="50" height="50" relative="1" as="geometry">
            <mxPoint x="890" y="170" as="sourcePoint" />
            <mxPoint x="940" y="120" as="targetPoint" />
          </mxGeometry>
        </mxCell>
        <mxCell id="BEGQN_6X3QiuYtlpZbj9-39" value="" style="endArrow=none;html=1;rounded=0;entryX=0.5;entryY=1;entryDx=0;entryDy=0;exitX=0.5;exitY=0;exitDx=0;exitDy=0;" edge="1" parent="1" source="BEGQN_6X3QiuYtlpZbj9-28" target="BEGQN_6X3QiuYtlpZbj9-37">
          <mxGeometry width="50" height="50" relative="1" as="geometry">
            <mxPoint x="890" y="170" as="sourcePoint" />
            <mxPoint x="940" y="120" as="targetPoint" />
          </mxGeometry>
        </mxCell>
        <mxCell id="BEGQN_6X3QiuYtlpZbj9-40" value="1" style="text;html=1;align=center;verticalAlign=middle;resizable=0;points=[];autosize=1;strokeColor=none;fillColor=none;" vertex="1" parent="1">
          <mxGeometry x="585" y="-21" width="30" height="30" as="geometry" />
        </mxCell>
        <mxCell id="BEGQN_6X3QiuYtlpZbj9-41" value="M" style="text;html=1;align=center;verticalAlign=middle;resizable=0;points=[];autosize=1;strokeColor=none;fillColor=none;" vertex="1" parent="1">
          <mxGeometry x="760" y="208" width="30" height="30" as="geometry" />
        </mxCell>
        <mxCell id="BEGQN_6X3QiuYtlpZbj9-42" value="1" style="text;html=1;align=center;verticalAlign=middle;resizable=0;points=[];autosize=1;strokeColor=none;fillColor=none;" vertex="1" parent="1">
          <mxGeometry x="785" y="203" width="30" height="30" as="geometry" />
        </mxCell>
        <mxCell id="BEGQN_6X3QiuYtlpZbj9-43" value="1" style="text;html=1;align=center;verticalAlign=middle;resizable=0;points=[];autosize=1;strokeColor=none;fillColor=none;" vertex="1" parent="1">
          <mxGeometry x="630" y="-21" width="30" height="30" as="geometry" />
        </mxCell>
        <mxCell id="BEGQN_6X3QiuYtlpZbj9-44" value="id" style="ellipse;whiteSpace=wrap;html=1;" vertex="1" parent="1">
          <mxGeometry x="510" y="-180" width="80" height="30" as="geometry" />
        </mxCell>
        <mxCell id="BEGQN_6X3QiuYtlpZbj9-45" value="nomTipo" style="ellipse;whiteSpace=wrap;html=1;" vertex="1" parent="1">
          <mxGeometry x="680" y="-129" width="80" height="30" as="geometry" />
        </mxCell>
        <mxCell id="BEGQN_6X3QiuYtlpZbj9-46" value="" style="endArrow=none;html=1;rounded=0;entryX=0.5;entryY=1;entryDx=0;entryDy=0;exitX=0;exitY=0.5;exitDx=0;exitDy=0;" edge="1" parent="1" source="BEGQN_6X3QiuYtlpZbj9-36" target="BEGQN_6X3QiuYtlpZbj9-44">
          <mxGeometry width="50" height="50" relative="1" as="geometry">
            <mxPoint x="690" y="111" as="sourcePoint" />
            <mxPoint x="740" y="61" as="targetPoint" />
          </mxGeometry>
        </mxCell>
        <mxCell id="BEGQN_6X3QiuYtlpZbj9-47" value="" style="endArrow=none;html=1;rounded=0;entryX=0.5;entryY=1;entryDx=0;entryDy=0;exitX=1;exitY=0.5;exitDx=0;exitDy=0;" edge="1" parent="1" source="BEGQN_6X3QiuYtlpZbj9-36" target="BEGQN_6X3QiuYtlpZbj9-45">
          <mxGeometry width="50" height="50" relative="1" as="geometry">
            <mxPoint x="690" y="111" as="sourcePoint" />
            <mxPoint x="740" y="61" as="targetPoint" />
          </mxGeometry>
        </mxCell>
        <mxCell id="BEGQN_6X3QiuYtlpZbj9-48" value="Categoria" style="rounded=0;whiteSpace=wrap;html=1;" vertex="1" parent="1">
          <mxGeometry x="590" y="530" width="120" height="60" as="geometry" />
        </mxCell>
        <mxCell id="BEGQN_6X3QiuYtlpZbj9-49" value="tiene&lt;br&gt;1:M" style="rhombus;whiteSpace=wrap;html=1;" vertex="1" parent="1">
          <mxGeometry x="690" y="380" width="80" height="80" as="geometry" />
        </mxCell>
        <mxCell id="BEGQN_6X3QiuYtlpZbj9-50" value="" style="endArrow=none;html=1;rounded=0;entryX=0.25;entryY=1;entryDx=0;entryDy=0;exitX=0.5;exitY=0;exitDx=0;exitDy=0;" edge="1" parent="1" source="BEGQN_6X3QiuYtlpZbj9-49" target="BEGQN_6X3QiuYtlpZbj9-28">
          <mxGeometry width="50" height="50" relative="1" as="geometry">
            <mxPoint x="740" y="350" as="sourcePoint" />
            <mxPoint x="940" y="370" as="targetPoint" />
          </mxGeometry>
        </mxCell>
        <mxCell id="BEGQN_6X3QiuYtlpZbj9-51" value="" style="endArrow=none;html=1;rounded=0;entryX=0.5;entryY=1;entryDx=0;entryDy=0;exitX=0.5;exitY=0;exitDx=0;exitDy=0;" edge="1" parent="1" source="BEGQN_6X3QiuYtlpZbj9-48" target="BEGQN_6X3QiuYtlpZbj9-49">
          <mxGeometry width="50" height="50" relative="1" as="geometry">
            <mxPoint x="890" y="420" as="sourcePoint" />
            <mxPoint x="940" y="370" as="targetPoint" />
          </mxGeometry>
        </mxCell>
        <mxCell id="BEGQN_6X3QiuYtlpZbj9-52" value="idCategoria" style="ellipse;whiteSpace=wrap;html=1;" vertex="1" parent="1">
          <mxGeometry x="489" y="620" width="89" height="35" as="geometry" />
        </mxCell>
        <mxCell id="BEGQN_6X3QiuYtlpZbj9-54" value="NomCategoria" style="ellipse;whiteSpace=wrap;html=1;" vertex="1" parent="1">
          <mxGeometry x="605.5" y="655" width="89" height="35" as="geometry" />
        </mxCell>
        <mxCell id="BEGQN_6X3QiuYtlpZbj9-55" value="" style="endArrow=none;html=1;rounded=0;exitX=0;exitY=0.75;exitDx=0;exitDy=0;entryX=0.5;entryY=0;entryDx=0;entryDy=0;" edge="1" parent="1" source="BEGQN_6X3QiuYtlpZbj9-48" target="BEGQN_6X3QiuYtlpZbj9-52">
          <mxGeometry width="50" height="50" relative="1" as="geometry">
            <mxPoint x="890" y="510" as="sourcePoint" />
            <mxPoint x="940" y="460" as="targetPoint" />
          </mxGeometry>
        </mxCell>
        <mxCell id="BEGQN_6X3QiuYtlpZbj9-56" value="" style="endArrow=none;html=1;rounded=0;exitX=0.5;exitY=1;exitDx=0;exitDy=0;entryX=0.5;entryY=0;entryDx=0;entryDy=0;" edge="1" parent="1" source="BEGQN_6X3QiuYtlpZbj9-48" target="BEGQN_6X3QiuYtlpZbj9-54">
          <mxGeometry width="50" height="50" relative="1" as="geometry">
            <mxPoint x="620" y="510" as="sourcePoint" />
            <mxPoint x="670" y="460" as="targetPoint" />
          </mxGeometry>
        </mxCell>
        <mxCell id="BEGQN_6X3QiuYtlpZbj9-57" value="1" style="text;html=1;align=center;verticalAlign=middle;resizable=0;points=[];autosize=1;strokeColor=none;fillColor=none;" vertex="1" parent="1">
          <mxGeometry x="745" y="298" width="30" height="30" as="geometry" />
        </mxCell>
        <mxCell id="BEGQN_6X3QiuYtlpZbj9-58" value="1" style="text;html=1;align=center;verticalAlign=middle;resizable=0;points=[];autosize=1;strokeColor=none;fillColor=none;" vertex="1" parent="1">
          <mxGeometry x="635" y="508" width="30" height="30" as="geometry" />
        </mxCell>
        <mxCell id="BEGQN_6X3QiuYtlpZbj9-59" value="1" style="text;html=1;align=center;verticalAlign=middle;resizable=0;points=[];autosize=1;strokeColor=none;fillColor=none;" vertex="1" parent="1">
          <mxGeometry x="665" y="508" width="30" height="30" as="geometry" />
        </mxCell>
        <mxCell id="BEGQN_6X3QiuYtlpZbj9-60" value="M" style="text;html=1;align=center;verticalAlign=middle;resizable=0;points=[];autosize=1;strokeColor=none;fillColor=none;" vertex="1" parent="1">
          <mxGeometry x="780" y="298" width="30" height="30" as="geometry" />
        </mxCell>
        <mxCell id="BEGQN_6X3QiuYtlpZbj9-61" value="idRegM" style="ellipse;whiteSpace=wrap;html=1;" vertex="1" parent="1">
          <mxGeometry x="660" y="170" width="80" height="30" as="geometry" />
        </mxCell>
        <mxCell id="BEGQN_6X3QiuYtlpZbj9-62" value="Valor" style="ellipse;whiteSpace=wrap;html=1;" vertex="1" parent="1">
          <mxGeometry x="747" y="104" width="80" height="30" as="geometry" />
        </mxCell>
        <mxCell id="BEGQN_6X3QiuYtlpZbj9-63" value="docRegM" style="ellipse;whiteSpace=wrap;html=1;" vertex="1" parent="1">
          <mxGeometry x="837" y="108" width="80" height="30" as="geometry" />
        </mxCell>
        <mxCell id="BEGQN_6X3QiuYtlpZbj9-64" value="" style="endArrow=none;html=1;rounded=0;entryX=0.5;entryY=1;entryDx=0;entryDy=0;exitX=0.25;exitY=0;exitDx=0;exitDy=0;" edge="1" parent="1" source="BEGQN_6X3QiuYtlpZbj9-28" target="BEGQN_6X3QiuYtlpZbj9-61">
          <mxGeometry width="50" height="50" relative="1" as="geometry">
            <mxPoint x="620" y="240" as="sourcePoint" />
            <mxPoint x="670" y="190" as="targetPoint" />
          </mxGeometry>
        </mxCell>
        <mxCell id="BEGQN_6X3QiuYtlpZbj9-65" value="" style="endArrow=none;html=1;rounded=0;entryX=0;entryY=1;entryDx=0;entryDy=0;" edge="1" parent="1" target="BEGQN_6X3QiuYtlpZbj9-62">
          <mxGeometry width="50" height="50" relative="1" as="geometry">
            <mxPoint x="820" y="240" as="sourcePoint" />
            <mxPoint x="670" y="190" as="targetPoint" />
          </mxGeometry>
        </mxCell>
        <mxCell id="BEGQN_6X3QiuYtlpZbj9-66" value="" style="endArrow=none;html=1;rounded=0;entryX=0;entryY=0.5;entryDx=0;entryDy=0;exitX=0.625;exitY=0;exitDx=0;exitDy=0;exitPerimeter=0;" edge="1" parent="1" source="BEGQN_6X3QiuYtlpZbj9-28" target="BEGQN_6X3QiuYtlpZbj9-63">
          <mxGeometry width="50" height="50" relative="1" as="geometry">
            <mxPoint x="620" y="240" as="sourcePoint" />
            <mxPoint x="670" y="190" as="targetPoint" />
          </mxGeometry>
        </mxCell>
        <mxCell id="BEGQN_6X3QiuYtlpZbj9-67" value="" style="ellipse;whiteSpace=wrap;html=1;fillColor=#d5e8d4;strokeColor=#82b366;" vertex="1" parent="1">
          <mxGeometry x="750" y="350" width="80" height="30" as="geometry" />
        </mxCell>
        <mxCell id="BEGQN_6X3QiuYtlpZbj9-68" value="" style="ellipse;whiteSpace=wrap;html=1;" vertex="1" parent="1">
          <mxGeometry x="770" y="350" width="60" height="30" as="geometry" />
        </mxCell>
        <mxCell id="BEGQN_6X3QiuYtlpZbj9-69" value="idCategoriaFK" style="text;html=1;align=center;verticalAlign=middle;resizable=0;points=[];autosize=1;strokeColor=none;fillColor=none;" vertex="1" parent="1">
          <mxGeometry x="740" y="350" width="100" height="30" as="geometry" />
        </mxCell>
        <mxCell id="BEGQN_6X3QiuYtlpZbj9-70" value="" style="endArrow=none;html=1;rounded=0;entryX=0.5;entryY=1;entryDx=0;entryDy=0;" edge="1" parent="1" source="BEGQN_6X3QiuYtlpZbj9-69" target="BEGQN_6X3QiuYtlpZbj9-28">
          <mxGeometry width="50" height="50" relative="1" as="geometry">
            <mxPoint x="620" y="240" as="sourcePoint" />
            <mxPoint x="670" y="190" as="targetPoint" />
          </mxGeometry>
        </mxCell>
        <mxCell id="BEGQN_6X3QiuYtlpZbj9-72" value="Terceros" style="rounded=0;whiteSpace=wrap;html=1;" vertex="1" parent="1">
          <mxGeometry x="980" y="525" width="120" height="60" as="geometry" />
        </mxCell>
        <mxCell id="BEGQN_6X3QiuYtlpZbj9-73" value="Tiene&lt;br&gt;1:M" style="rhombus;whiteSpace=wrap;html=1;" vertex="1" parent="1">
          <mxGeometry x="900" y="390" width="80" height="80" as="geometry" />
        </mxCell>
        <mxCell id="BEGQN_6X3QiuYtlpZbj9-74" value="" style="endArrow=none;html=1;rounded=0;entryX=1;entryY=1;entryDx=0;entryDy=0;exitX=0.5;exitY=0;exitDx=0;exitDy=0;" edge="1" parent="1" source="BEGQN_6X3QiuYtlpZbj9-73" target="BEGQN_6X3QiuYtlpZbj9-28">
          <mxGeometry width="50" height="50" relative="1" as="geometry">
            <mxPoint x="930" y="380" as="sourcePoint" />
            <mxPoint x="850" y="400" as="targetPoint" />
          </mxGeometry>
        </mxCell>
        <mxCell id="BEGQN_6X3QiuYtlpZbj9-75" value="" style="endArrow=none;html=1;rounded=0;entryX=0.5;entryY=1;entryDx=0;entryDy=0;exitX=0.5;exitY=0;exitDx=0;exitDy=0;" edge="1" parent="1" source="BEGQN_6X3QiuYtlpZbj9-72" target="BEGQN_6X3QiuYtlpZbj9-73">
          <mxGeometry width="50" height="50" relative="1" as="geometry">
            <mxPoint x="800" y="450" as="sourcePoint" />
            <mxPoint x="850" y="400" as="targetPoint" />
          </mxGeometry>
        </mxCell>
        <mxCell id="BEGQN_6X3QiuYtlpZbj9-76" value="" style="ellipse;whiteSpace=wrap;html=1;fillColor=#d5e8d4;strokeColor=#82b366;" vertex="1" parent="1">
          <mxGeometry x="827" y="380" width="80" height="30" as="geometry" />
        </mxCell>
        <mxCell id="BEGQN_6X3QiuYtlpZbj9-77" value="" style="ellipse;whiteSpace=wrap;html=1;" vertex="1" parent="1">
          <mxGeometry x="847" y="380" width="60" height="30" as="geometry" />
        </mxCell>
        <mxCell id="BEGQN_6X3QiuYtlpZbj9-78" value="" style="endArrow=none;html=1;rounded=0;entryX=0.75;entryY=1;entryDx=0;entryDy=0;exitX=0.5;exitY=0;exitDx=0;exitDy=0;" edge="1" parent="1" source="BEGQN_6X3QiuYtlpZbj9-77" target="BEGQN_6X3QiuYtlpZbj9-28">
          <mxGeometry width="50" height="50" relative="1" as="geometry">
            <mxPoint x="800" y="450" as="sourcePoint" />
            <mxPoint x="850" y="400" as="targetPoint" />
          </mxGeometry>
        </mxCell>
        <mxCell id="BEGQN_6X3QiuYtlpZbj9-79" value="idTercerosFK" style="text;html=1;align=center;verticalAlign=middle;resizable=0;points=[];autosize=1;strokeColor=none;fillColor=none;" vertex="1" parent="1">
          <mxGeometry x="820" y="380" width="90" height="30" as="geometry" />
        </mxCell>
        <mxCell id="BEGQN_6X3QiuYtlpZbj9-80" value="idTerceros" style="ellipse;whiteSpace=wrap;html=1;" vertex="1" parent="1">
          <mxGeometry x="890" y="610" width="80" height="30" as="geometry" />
        </mxCell>
        <mxCell id="BEGQN_6X3QiuYtlpZbj9-81" value="NomTerceros" style="ellipse;whiteSpace=wrap;html=1;" vertex="1" parent="1">
          <mxGeometry x="1020" y="655" width="80" height="30" as="geometry" />
        </mxCell>
        <mxCell id="BEGQN_6X3QiuYtlpZbj9-82" value="Regimen" style="ellipse;whiteSpace=wrap;html=1;" vertex="1" parent="1">
          <mxGeometry x="1130" y="600" width="80" height="30" as="geometry" />
        </mxCell>
        <mxCell id="BEGQN_6X3QiuYtlpZbj9-83" value="" style="endArrow=none;html=1;rounded=0;entryX=0;entryY=0.5;entryDx=0;entryDy=0;exitX=0.5;exitY=0;exitDx=0;exitDy=0;" edge="1" parent="1" source="BEGQN_6X3QiuYtlpZbj9-80" target="BEGQN_6X3QiuYtlpZbj9-72">
          <mxGeometry width="50" height="50" relative="1" as="geometry">
            <mxPoint x="800" y="450" as="sourcePoint" />
            <mxPoint x="850" y="400" as="targetPoint" />
          </mxGeometry>
        </mxCell>
        <mxCell id="BEGQN_6X3QiuYtlpZbj9-84" value="" style="endArrow=none;html=1;rounded=0;entryX=0.5;entryY=1;entryDx=0;entryDy=0;exitX=0.5;exitY=0;exitDx=0;exitDy=0;" edge="1" parent="1" source="BEGQN_6X3QiuYtlpZbj9-81" target="BEGQN_6X3QiuYtlpZbj9-72">
          <mxGeometry width="50" height="50" relative="1" as="geometry">
            <mxPoint x="800" y="450" as="sourcePoint" />
            <mxPoint x="850" y="400" as="targetPoint" />
          </mxGeometry>
        </mxCell>
        <mxCell id="BEGQN_6X3QiuYtlpZbj9-85" value="" style="endArrow=none;html=1;rounded=0;entryX=1;entryY=0.5;entryDx=0;entryDy=0;exitX=0.5;exitY=0;exitDx=0;exitDy=0;" edge="1" parent="1" source="BEGQN_6X3QiuYtlpZbj9-82" target="BEGQN_6X3QiuYtlpZbj9-72">
          <mxGeometry width="50" height="50" relative="1" as="geometry">
            <mxPoint x="800" y="450" as="sourcePoint" />
            <mxPoint x="850" y="400" as="targetPoint" />
          </mxGeometry>
        </mxCell>
        <mxCell id="BEGQN_6X3QiuYtlpZbj9-86" value="Estado" style="rounded=0;whiteSpace=wrap;html=1;" vertex="1" parent="1">
          <mxGeometry x="1440" y="238" width="120" height="60" as="geometry" />
        </mxCell>
        <mxCell id="BEGQN_6X3QiuYtlpZbj9-87" value="Tiene&lt;br&gt;N:M" style="rhombus;whiteSpace=wrap;html=1;" vertex="1" parent="1">
          <mxGeometry x="1130" y="230" width="80" height="80" as="geometry" />
        </mxCell>
        <mxCell id="BEGQN_6X3QiuYtlpZbj9-88" value="" style="endArrow=none;html=1;rounded=0;exitX=1;exitY=0.5;exitDx=0;exitDy=0;entryX=0;entryY=0.5;entryDx=0;entryDy=0;" edge="1" parent="1" source="BEGQN_6X3QiuYtlpZbj9-28" target="BEGQN_6X3QiuYtlpZbj9-87">
          <mxGeometry width="50" height="50" relative="1" as="geometry">
            <mxPoint x="1280" y="260" as="sourcePoint" />
            <mxPoint x="1330" y="210" as="targetPoint" />
          </mxGeometry>
        </mxCell>
        <mxCell id="BEGQN_6X3QiuYtlpZbj9-89" value="" style="endArrow=none;html=1;rounded=0;exitX=1;exitY=0.5;exitDx=0;exitDy=0;entryX=0;entryY=0.5;entryDx=0;entryDy=0;" edge="1" parent="1" source="BEGQN_6X3QiuYtlpZbj9-87" target="BEGQN_6X3QiuYtlpZbj9-86">
          <mxGeometry width="50" height="50" relative="1" as="geometry">
            <mxPoint x="1280" y="260" as="sourcePoint" />
            <mxPoint x="1330" y="210" as="targetPoint" />
          </mxGeometry>
        </mxCell>
        <mxCell id="BEGQN_6X3QiuYtlpZbj9-90" value="1" style="text;html=1;align=center;verticalAlign=middle;resizable=0;points=[];autosize=1;strokeColor=none;fillColor=none;" vertex="1" parent="1">
          <mxGeometry x="865" y="248" width="30" height="30" as="geometry" />
        </mxCell>
        <mxCell id="BEGQN_6X3QiuYtlpZbj9-91" value="M" style="text;html=1;align=center;verticalAlign=middle;resizable=0;points=[];autosize=1;strokeColor=none;fillColor=none;" vertex="1" parent="1">
          <mxGeometry x="1415" y="238" width="30" height="30" as="geometry" />
        </mxCell>
        <mxCell id="BEGQN_6X3QiuYtlpZbj9-92" value="1" style="text;html=1;align=center;verticalAlign=middle;resizable=0;points=[];autosize=1;strokeColor=none;fillColor=none;" vertex="1" parent="1">
          <mxGeometry x="1415" y="268" width="30" height="30" as="geometry" />
        </mxCell>
        <mxCell id="BEGQN_6X3QiuYtlpZbj9-96" value="N" style="text;html=1;align=center;verticalAlign=middle;resizable=0;points=[];autosize=1;strokeColor=none;fillColor=none;" vertex="1" parent="1">
          <mxGeometry x="865" y="268" width="30" height="30" as="geometry" />
        </mxCell>
        <mxCell id="BEGQN_6X3QiuYtlpZbj9-97" value="IidEstados" style="ellipse;whiteSpace=wrap;html=1;" vertex="1" parent="1">
          <mxGeometry x="1470" y="155" width="80" height="40" as="geometry" />
        </mxCell>
        <mxCell id="BEGQN_6X3QiuYtlpZbj9-99" value="nomEstados" style="ellipse;whiteSpace=wrap;html=1;" vertex="1" parent="1">
          <mxGeometry x="1590" y="203" width="80" height="40" as="geometry" />
        </mxCell>
        <mxCell id="BEGQN_6X3QiuYtlpZbj9-100" value="" style="endArrow=none;html=1;rounded=0;entryX=0.5;entryY=1;entryDx=0;entryDy=0;exitX=0.25;exitY=0;exitDx=0;exitDy=0;" edge="1" parent="1" source="BEGQN_6X3QiuYtlpZbj9-86" target="BEGQN_6X3QiuYtlpZbj9-97">
          <mxGeometry width="50" height="50" relative="1" as="geometry">
            <mxPoint x="1240" y="430" as="sourcePoint" />
            <mxPoint x="1290" y="380" as="targetPoint" />
          </mxGeometry>
        </mxCell>
        <mxCell id="BEGQN_6X3QiuYtlpZbj9-101" value="" style="endArrow=none;html=1;rounded=0;entryX=0.5;entryY=1;entryDx=0;entryDy=0;exitX=1;exitY=0.5;exitDx=0;exitDy=0;" edge="1" parent="1" source="BEGQN_6X3QiuYtlpZbj9-86" target="BEGQN_6X3QiuYtlpZbj9-99">
          <mxGeometry width="50" height="50" relative="1" as="geometry">
            <mxPoint x="1240" y="430" as="sourcePoint" />
            <mxPoint x="1290" y="380" as="targetPoint" />
          </mxGeometry>
        </mxCell>
        <mxCell id="BEGQN_6X3QiuYtlpZbj9-102" value="" style="ellipse;whiteSpace=wrap;html=1;fillColor=#d5e8d4;strokeColor=#82b366;" vertex="1" parent="1">
          <mxGeometry x="1050" y="350" width="90" height="30" as="geometry" />
        </mxCell>
        <mxCell id="BEGQN_6X3QiuYtlpZbj9-103" value="" style="ellipse;whiteSpace=wrap;html=1;" vertex="1" parent="1">
          <mxGeometry x="1070" y="350" width="70" height="30" as="geometry" />
        </mxCell>
        <mxCell id="BEGQN_6X3QiuYtlpZbj9-104" value="idRegMFK" style="text;html=1;align=center;verticalAlign=middle;resizable=0;points=[];autosize=1;strokeColor=none;fillColor=none;" vertex="1" parent="1">
          <mxGeometry x="1050" y="350" width="80" height="30" as="geometry" />
        </mxCell>
        <mxCell id="BEGQN_6X3QiuYtlpZbj9-105" value="" style="ellipse;whiteSpace=wrap;html=1;fillColor=#d5e8d4;strokeColor=#82b366;" vertex="1" parent="1">
          <mxGeometry x="1215" y="350" width="90" height="30" as="geometry" />
        </mxCell>
        <mxCell id="BEGQN_6X3QiuYtlpZbj9-106" value="" style="ellipse;whiteSpace=wrap;html=1;" vertex="1" parent="1">
          <mxGeometry x="1235" y="350" width="70" height="30" as="geometry" />
        </mxCell>
        <mxCell id="BEGQN_6X3QiuYtlpZbj9-107" value="idEstadosFK" style="text;html=1;align=center;verticalAlign=middle;resizable=0;points=[];autosize=1;strokeColor=none;fillColor=none;" vertex="1" parent="1">
          <mxGeometry x="1210" y="350" width="90" height="30" as="geometry" />
        </mxCell>
        <mxCell id="BEGQN_6X3QiuYtlpZbj9-108" value="" style="endArrow=none;html=1;rounded=0;entryX=0;entryY=1;entryDx=0;entryDy=0;exitX=0.538;exitY=0.1;exitDx=0;exitDy=0;exitPerimeter=0;" edge="1" parent="1" source="BEGQN_6X3QiuYtlpZbj9-104" target="BEGQN_6X3QiuYtlpZbj9-87">
          <mxGeometry width="50" height="50" relative="1" as="geometry">
            <mxPoint x="1220" y="430" as="sourcePoint" />
            <mxPoint x="1270" y="380" as="targetPoint" />
          </mxGeometry>
        </mxCell>
        <mxCell id="BEGQN_6X3QiuYtlpZbj9-109" value="" style="endArrow=none;html=1;rounded=0;entryX=0.838;entryY=0.738;entryDx=0;entryDy=0;entryPerimeter=0;exitX=0.456;exitY=0.067;exitDx=0;exitDy=0;exitPerimeter=0;" edge="1" parent="1" source="BEGQN_6X3QiuYtlpZbj9-107" target="BEGQN_6X3QiuYtlpZbj9-87">
          <mxGeometry width="50" height="50" relative="1" as="geometry">
            <mxPoint x="1220" y="430" as="sourcePoint" />
            <mxPoint x="1270" y="380" as="targetPoint" />
          </mxGeometry>
        </mxCell>
        <mxCell id="BEGQN_6X3QiuYtlpZbj9-110" value="Fecha" style="ellipse;whiteSpace=wrap;html=1;" vertex="1" parent="1">
          <mxGeometry x="1062.5" y="160" width="85" height="28" as="geometry" />
        </mxCell>
        <mxCell id="BEGQN_6X3QiuYtlpZbj9-111" value="monto" style="ellipse;whiteSpace=wrap;html=1;" vertex="1" parent="1">
          <mxGeometry x="1198" y="160" width="85" height="28" as="geometry" />
        </mxCell>
        <mxCell id="BEGQN_6X3QiuYtlpZbj9-112" value="DocCotizacion" style="ellipse;whiteSpace=wrap;html=1;" vertex="1" parent="1">
          <mxGeometry x="1130" y="80" width="85" height="28" as="geometry" />
        </mxCell>
        <mxCell id="BEGQN_6X3QiuYtlpZbj9-113" value="" style="endArrow=none;html=1;rounded=0;exitX=0.5;exitY=0;exitDx=0;exitDy=0;entryX=0.5;entryY=1;entryDx=0;entryDy=0;" edge="1" parent="1" source="BEGQN_6X3QiuYtlpZbj9-87" target="BEGQN_6X3QiuYtlpZbj9-112">
          <mxGeometry width="50" height="50" relative="1" as="geometry">
            <mxPoint x="1220" y="240" as="sourcePoint" />
            <mxPoint x="1190" y="120" as="targetPoint" />
          </mxGeometry>
        </mxCell>
        <mxCell id="BEGQN_6X3QiuYtlpZbj9-114" value="" style="endArrow=none;html=1;rounded=0;entryX=0.5;entryY=1;entryDx=0;entryDy=0;exitX=0;exitY=0;exitDx=0;exitDy=0;" edge="1" parent="1" source="BEGQN_6X3QiuYtlpZbj9-87" target="BEGQN_6X3QiuYtlpZbj9-110">
          <mxGeometry width="50" height="50" relative="1" as="geometry">
            <mxPoint x="1220" y="240" as="sourcePoint" />
            <mxPoint x="1270" y="190" as="targetPoint" />
          </mxGeometry>
        </mxCell>
        <mxCell id="BEGQN_6X3QiuYtlpZbj9-115" value="" style="endArrow=none;html=1;rounded=0;exitX=1;exitY=0;exitDx=0;exitDy=0;entryX=0.5;entryY=1;entryDx=0;entryDy=0;" edge="1" parent="1" source="BEGQN_6X3QiuYtlpZbj9-87" target="BEGQN_6X3QiuYtlpZbj9-111">
          <mxGeometry width="50" height="50" relative="1" as="geometry">
            <mxPoint x="1220" y="240" as="sourcePoint" />
            <mxPoint x="1270" y="190" as="targetPoint" />
          </mxGeometry>
        </mxCell>
        <mxCell id="BEGQN_6X3QiuYtlpZbj9-116" value="hora" style="ellipse;whiteSpace=wrap;html=1;" vertex="1" parent="1">
          <mxGeometry x="1241" y="200" width="85" height="28" as="geometry" />
        </mxCell>
        <mxCell id="BEGQN_6X3QiuYtlpZbj9-117" value="" style="endArrow=none;html=1;rounded=0;entryX=0;entryY=1;entryDx=0;entryDy=0;exitX=0.913;exitY=0.313;exitDx=0;exitDy=0;exitPerimeter=0;" edge="1" parent="1" source="BEGQN_6X3QiuYtlpZbj9-87" target="BEGQN_6X3QiuYtlpZbj9-116">
          <mxGeometry width="50" height="50" relative="1" as="geometry">
            <mxPoint x="1240" y="270" as="sourcePoint" />
            <mxPoint x="1290" y="220" as="targetPoint" />
          </mxGeometry>
        </mxCell>
        <mxCell id="BEGQN_6X3QiuYtlpZbj9-118" value="Usuario" style="rounded=0;whiteSpace=wrap;html=1;" vertex="1" parent="1">
          <mxGeometry x="950" y="-79" width="120" height="60" as="geometry" />
        </mxCell>
        <mxCell id="BEGQN_6X3QiuYtlpZbj9-120" value="id" style="ellipse;whiteSpace=wrap;html=1;" vertex="1" parent="1">
          <mxGeometry x="847" y="-81" width="87" height="36" as="geometry" />
        </mxCell>
        <mxCell id="BEGQN_6X3QiuYtlpZbj9-121" value="identificacion" style="ellipse;whiteSpace=wrap;html=1;" vertex="1" parent="1">
          <mxGeometry x="895" y="-165" width="87" height="36" as="geometry" />
        </mxCell>
        <mxCell id="BEGQN_6X3QiuYtlpZbj9-122" value="nomUsuario" style="ellipse;whiteSpace=wrap;html=1;" vertex="1" parent="1">
          <mxGeometry x="1070" y="-201" width="87" height="36" as="geometry" />
        </mxCell>
        <mxCell id="BEGQN_6X3QiuYtlpZbj9-123" value="" style="endArrow=none;html=1;rounded=0;entryX=0.5;entryY=1;entryDx=0;entryDy=0;exitX=0;exitY=0.5;exitDx=0;exitDy=0;" edge="1" parent="1" source="BEGQN_6X3QiuYtlpZbj9-118" target="BEGQN_6X3QiuYtlpZbj9-120">
          <mxGeometry width="50" height="50" relative="1" as="geometry">
            <mxPoint x="950" y="160" as="sourcePoint" />
            <mxPoint x="1000" y="110" as="targetPoint" />
          </mxGeometry>
        </mxCell>
        <mxCell id="BEGQN_6X3QiuYtlpZbj9-124" value="" style="endArrow=none;html=1;rounded=0;entryX=0.5;entryY=1;entryDx=0;entryDy=0;exitX=0.5;exitY=0;exitDx=0;exitDy=0;" edge="1" parent="1" source="BEGQN_6X3QiuYtlpZbj9-118" target="BEGQN_6X3QiuYtlpZbj9-121">
          <mxGeometry width="50" height="50" relative="1" as="geometry">
            <mxPoint x="950" y="160" as="sourcePoint" />
            <mxPoint x="1000" y="110" as="targetPoint" />
          </mxGeometry>
        </mxCell>
        <mxCell id="BEGQN_6X3QiuYtlpZbj9-126" value="" style="endArrow=none;html=1;rounded=0;entryX=0.5;entryY=1;entryDx=0;entryDy=0;exitX=1.167;exitY=0.733;exitDx=0;exitDy=0;exitPerimeter=0;" edge="1" parent="1" source="BEGQN_6X3QiuYtlpZbj9-144" target="BEGQN_6X3QiuYtlpZbj9-122">
          <mxGeometry width="50" height="50" relative="1" as="geometry">
            <mxPoint x="950" y="150" as="sourcePoint" />
            <mxPoint x="1000" y="100" as="targetPoint" />
          </mxGeometry>
        </mxCell>
        <mxCell id="BEGQN_6X3QiuYtlpZbj9-127" value="tiene&lt;br&gt;1:M" style="rhombus;whiteSpace=wrap;html=1;" vertex="1" parent="1">
          <mxGeometry x="900" y="50" width="80" height="80" as="geometry" />
        </mxCell>
        <mxCell id="BEGQN_6X3QiuYtlpZbj9-128" value="" style="endArrow=none;html=1;rounded=0;entryX=0.5;entryY=1;entryDx=0;entryDy=0;exitX=0.5;exitY=0;exitDx=0;exitDy=0;" edge="1" parent="1" source="BEGQN_6X3QiuYtlpZbj9-127" target="BEGQN_6X3QiuYtlpZbj9-118">
          <mxGeometry width="50" height="50" relative="1" as="geometry">
            <mxPoint x="950" y="140" as="sourcePoint" />
            <mxPoint x="1000" y="90" as="targetPoint" />
          </mxGeometry>
        </mxCell>
        <mxCell id="BEGQN_6X3QiuYtlpZbj9-129" value="" style="endArrow=none;html=1;rounded=0;entryX=0.5;entryY=1;entryDx=0;entryDy=0;exitX=0.75;exitY=0;exitDx=0;exitDy=0;" edge="1" parent="1" source="BEGQN_6X3QiuYtlpZbj9-28" target="BEGQN_6X3QiuYtlpZbj9-127">
          <mxGeometry width="50" height="50" relative="1" as="geometry">
            <mxPoint x="910" y="170" as="sourcePoint" />
            <mxPoint x="1000" y="90" as="targetPoint" />
          </mxGeometry>
        </mxCell>
        <mxCell id="BEGQN_6X3QiuYtlpZbj9-132" value="1" style="text;html=1;align=center;verticalAlign=middle;resizable=0;points=[];autosize=1;strokeColor=none;fillColor=none;" vertex="1" parent="1">
          <mxGeometry x="827" y="208" width="30" height="30" as="geometry" />
        </mxCell>
        <mxCell id="BEGQN_6X3QiuYtlpZbj9-134" value="M" style="text;html=1;align=center;verticalAlign=middle;resizable=0;points=[];autosize=1;strokeColor=none;fillColor=none;" vertex="1" parent="1">
          <mxGeometry x="845" y="218" width="30" height="30" as="geometry" />
        </mxCell>
        <mxCell id="BEGQN_6X3QiuYtlpZbj9-135" value="1" style="text;html=1;align=center;verticalAlign=middle;resizable=0;points=[];autosize=1;strokeColor=none;fillColor=none;" vertex="1" parent="1">
          <mxGeometry x="966.5" y="-19" width="30" height="30" as="geometry" />
        </mxCell>
        <mxCell id="BEGQN_6X3QiuYtlpZbj9-136" value="1" style="text;html=1;align=center;verticalAlign=middle;resizable=0;points=[];autosize=1;strokeColor=none;fillColor=none;" vertex="1" parent="1">
          <mxGeometry x="996.5" y="-19" width="30" height="30" as="geometry" />
        </mxCell>
        <mxCell id="BEGQN_6X3QiuYtlpZbj9-138" value="" style="ellipse;whiteSpace=wrap;html=1;fillColor=#d5e8d4;strokeColor=#82b366;" vertex="1" parent="1">
          <mxGeometry x="900" y="178" width="80" height="30" as="geometry" />
        </mxCell>
        <mxCell id="BEGQN_6X3QiuYtlpZbj9-139" value="" style="ellipse;whiteSpace=wrap;html=1;" vertex="1" parent="1">
          <mxGeometry x="920" y="178" width="60" height="30" as="geometry" />
        </mxCell>
        <mxCell id="BEGQN_6X3QiuYtlpZbj9-140" value="idUsuarioFK" style="text;html=1;strokeColor=none;fillColor=none;align=center;verticalAlign=middle;whiteSpace=wrap;rounded=0;" vertex="1" parent="1">
          <mxGeometry x="910" y="178" width="60" height="30" as="geometry" />
        </mxCell>
        <mxCell id="BEGQN_6X3QiuYtlpZbj9-141" value="" style="endArrow=none;html=1;rounded=0;exitX=0.5;exitY=1;exitDx=0;exitDy=0;entryX=0.8;entryY=0.967;entryDx=0;entryDy=0;entryPerimeter=0;" edge="1" parent="1" source="BEGQN_6X3QiuYtlpZbj9-140" target="BEGQN_6X3QiuYtlpZbj9-134">
          <mxGeometry width="50" height="50" relative="1" as="geometry">
            <mxPoint x="950" y="140" as="sourcePoint" />
            <mxPoint x="1000" y="90" as="targetPoint" />
          </mxGeometry>
        </mxCell>
        <mxCell id="BEGQN_6X3QiuYtlpZbj9-143" value="1" style="text;html=1;align=center;verticalAlign=middle;resizable=0;points=[];autosize=1;strokeColor=none;fillColor=none;" vertex="1" parent="1">
          <mxGeometry x="1015" y="-102" width="30" height="30" as="geometry" />
        </mxCell>
        <mxCell id="BEGQN_6X3QiuYtlpZbj9-144" value="1" style="text;html=1;align=center;verticalAlign=middle;resizable=0;points=[];autosize=1;strokeColor=none;fillColor=none;" vertex="1" parent="1">
          <mxGeometry x="1035" y="-102" width="30" height="30" as="geometry" />
        </mxCell>
        <mxCell id="BEGQN_6X3QiuYtlpZbj9-145" value="1" style="text;html=1;align=center;verticalAlign=middle;resizable=0;points=[];autosize=1;strokeColor=none;fillColor=none;" vertex="1" parent="1">
          <mxGeometry x="1045" y="-482" width="30" height="30" as="geometry" />
        </mxCell>
        <mxCell id="BEGQN_6X3QiuYtlpZbj9-146" value="Roles" style="rounded=0;whiteSpace=wrap;html=1;" vertex="1" parent="1">
          <mxGeometry x="1470" y="-81" width="120" height="60" as="geometry" />
        </mxCell>
        <mxCell id="BEGQN_6X3QiuYtlpZbj9-147" value="Tiene&lt;br&gt;1:M" style="rhombus;whiteSpace=wrap;html=1;" vertex="1" parent="1">
          <mxGeometry x="1235" y="-89" width="80" height="80" as="geometry" />
        </mxCell>
        <mxCell id="BEGQN_6X3QiuYtlpZbj9-148" value="" style="endArrow=none;html=1;rounded=0;exitX=1;exitY=0.5;exitDx=0;exitDy=0;entryX=0;entryY=0.5;entryDx=0;entryDy=0;" edge="1" parent="1" source="BEGQN_6X3QiuYtlpZbj9-118" target="BEGQN_6X3QiuYtlpZbj9-147">
          <mxGeometry width="50" height="50" relative="1" as="geometry">
            <mxPoint x="1290" y="-10" as="sourcePoint" />
            <mxPoint x="1340" y="-60" as="targetPoint" />
          </mxGeometry>
        </mxCell>
        <mxCell id="BEGQN_6X3QiuYtlpZbj9-149" value="" style="endArrow=none;html=1;rounded=0;entryX=0;entryY=0.5;entryDx=0;entryDy=0;" edge="1" parent="1" source="BEGQN_6X3QiuYtlpZbj9-147" target="BEGQN_6X3QiuYtlpZbj9-146">
          <mxGeometry width="50" height="50" relative="1" as="geometry">
            <mxPoint x="1290" y="-10" as="sourcePoint" />
            <mxPoint x="1340" y="-60" as="targetPoint" />
          </mxGeometry>
        </mxCell>
        <mxCell id="BEGQN_6X3QiuYtlpZbj9-150" value="idRoles" style="ellipse;whiteSpace=wrap;html=1;" vertex="1" parent="1">
          <mxGeometry x="1490" y="-180" width="100" height="30" as="geometry" />
        </mxCell>
        <mxCell id="BEGQN_6X3QiuYtlpZbj9-151" value="nomRoles" style="ellipse;whiteSpace=wrap;html=1;" vertex="1" parent="1">
          <mxGeometry x="1630" y="-119" width="100" height="30" as="geometry" />
        </mxCell>
        <mxCell id="BEGQN_6X3QiuYtlpZbj9-152" value="" style="endArrow=none;html=1;rounded=0;entryX=0.5;entryY=1;entryDx=0;entryDy=0;exitX=0.5;exitY=0;exitDx=0;exitDy=0;" edge="1" parent="1" source="BEGQN_6X3QiuYtlpZbj9-146" target="BEGQN_6X3QiuYtlpZbj9-150">
          <mxGeometry width="50" height="50" relative="1" as="geometry">
            <mxPoint x="1620" y="-10" as="sourcePoint" />
            <mxPoint x="1670" y="-60" as="targetPoint" />
          </mxGeometry>
        </mxCell>
        <mxCell id="BEGQN_6X3QiuYtlpZbj9-153" value="" style="endArrow=none;html=1;rounded=0;entryX=0.5;entryY=1;entryDx=0;entryDy=0;exitX=1;exitY=0.5;exitDx=0;exitDy=0;" edge="1" parent="1" source="BEGQN_6X3QiuYtlpZbj9-146" target="BEGQN_6X3QiuYtlpZbj9-151">
          <mxGeometry width="50" height="50" relative="1" as="geometry">
            <mxPoint x="1620" y="-10" as="sourcePoint" />
            <mxPoint x="1670" y="-60" as="targetPoint" />
          </mxGeometry>
        </mxCell>
        <mxCell id="BEGQN_6X3QiuYtlpZbj9-154" value="1" style="text;html=1;align=center;verticalAlign=middle;resizable=0;points=[];autosize=1;strokeColor=none;fillColor=none;" vertex="1" parent="1">
          <mxGeometry x="1075" y="-72" width="30" height="30" as="geometry" />
        </mxCell>
        <mxCell id="BEGQN_6X3QiuYtlpZbj9-155" value="1" style="text;html=1;align=center;verticalAlign=middle;resizable=0;points=[];autosize=1;strokeColor=none;fillColor=none;" vertex="1" parent="1">
          <mxGeometry x="1435" y="-82" width="30" height="30" as="geometry" />
        </mxCell>
        <mxCell id="BEGQN_6X3QiuYtlpZbj9-158" value="1" style="text;html=1;align=center;verticalAlign=middle;resizable=0;points=[];autosize=1;strokeColor=none;fillColor=none;" vertex="1" parent="1">
          <mxGeometry x="1435" y="-52" width="30" height="30" as="geometry" />
        </mxCell>
        <mxCell id="BEGQN_6X3QiuYtlpZbj9-159" value="M" style="text;html=1;align=center;verticalAlign=middle;resizable=0;points=[];autosize=1;strokeColor=none;fillColor=none;" vertex="1" parent="1">
          <mxGeometry x="1075" y="-42" width="30" height="30" as="geometry" />
        </mxCell>
        <mxCell id="BEGQN_6X3QiuYtlpZbj9-160" value="" style="ellipse;whiteSpace=wrap;html=1;fillColor=#d5e8d4;strokeColor=#82b366;" vertex="1" parent="1">
          <mxGeometry x="1205" y="-150" width="100" height="30" as="geometry" />
        </mxCell>
        <mxCell id="BEGQN_6X3QiuYtlpZbj9-161" value="" style="ellipse;whiteSpace=wrap;html=1;" vertex="1" parent="1">
          <mxGeometry x="1230" y="-150" width="78" height="30" as="geometry" />
        </mxCell>
        <mxCell id="BEGQN_6X3QiuYtlpZbj9-162" value="idRolesFK" style="text;html=1;align=center;verticalAlign=middle;resizable=0;points=[];autosize=1;strokeColor=none;fillColor=none;" vertex="1" parent="1">
          <mxGeometry x="1208" y="-149" width="80" height="30" as="geometry" />
        </mxCell>
        <mxCell id="BEGQN_6X3QiuYtlpZbj9-163" value="" style="endArrow=none;html=1;rounded=0;exitX=-0.2;exitY=0.533;exitDx=0;exitDy=0;exitPerimeter=0;entryX=0.288;entryY=1.033;entryDx=0;entryDy=0;entryPerimeter=0;" edge="1" parent="1" source="BEGQN_6X3QiuYtlpZbj9-154" target="BEGQN_6X3QiuYtlpZbj9-162">
          <mxGeometry width="50" height="50" relative="1" as="geometry">
            <mxPoint x="1220" y="-10" as="sourcePoint" />
            <mxPoint x="1270" y="-60" as="targetPoint" />
          </mxGeometry>
        </mxCell>
      </root>
    </mxGraphModel>
  </diagram>
</mxfile>
